<svg width="1012" height="1001" viewBox="0 0 1012 1001" fill="none" xmlns="http://www.w3.org/2000/svg">
<g clip-path="url(#clip0_89_175)">
<rect width="1012" height="1001" rx="18" fill="#141313"/>
<g opacity="0.5">
<rect x="901.3" y="165.55" width="5.89548" height="865.45" fill="url(#paint0_linear_89_175)"/>
<rect x="972.045" y="165.55" width="5.89548" height="865.45" fill="url(#paint1_linear_89_175)"/>
<rect x="954.359" y="165.55" width="5.89548" height="865.45" fill="url(#paint2_linear_89_175)"/>
<rect x="865.928" y="165.55" width="5.89548" height="865.45" fill="url(#paint3_linear_89_175)"/>
<rect x="918.987" y="165.55" width="5.89548" height="865.45" fill="url(#paint4_linear_89_175)"/>
<rect x="989.732" y="165.55" width="5.89548" height="865.45" fill="url(#paint5_linear_89_175)"/>
<rect x="883.614" y="165.55" width="5.89548" height="865.45" fill="url(#paint6_linear_89_175)"/>
<rect x="936.673" y="165.55" width="5.89548" height="865.45" fill="url(#paint7_linear_89_175)"/>
<rect x="1007.42" y="165.55" width="5.89548" height="865.45" fill="url(#paint8_linear_89_175)"/>
<rect x="836.5" y="201" width="6.00004" height="671" transform="rotate(90 836.5 201)" fill="url(#paint9_linear_89_175)"/>
<rect x="836.5" y="272" width="6.00004" height="671" transform="rotate(90 836.5 272)" fill="url(#paint10_linear_89_175)"/>
<rect x="836.5" y="254" width="6.00004" height="671" transform="rotate(90 836.5 254)" fill="url(#paint11_linear_89_175)"/>
<rect x="836.5" y="325" width="6.00004" height="671" transform="rotate(90 836.5 325)" fill="url(#paint12_linear_89_175)"/>
<rect x="836.5" y="166" width="6.00004" height="671" transform="rotate(90 836.5 166)" fill="url(#paint13_linear_89_175)"/>
<rect x="836.5" y="219" width="6.00004" height="671" transform="rotate(90 836.5 219)" fill="url(#paint14_linear_89_175)"/>
<rect x="836.5" y="290" width="6.00004" height="671" transform="rotate(90 836.5 290)" fill="url(#paint15_linear_89_175)"/>
<rect x="836.5" y="184" width="6.00004" height="671" transform="rotate(90 836.5 184)" fill="url(#paint16_linear_89_175)"/>
<rect x="836.5" y="237" width="6.00004" height="671" transform="rotate(90 836.5 237)" fill="url(#paint17_linear_89_175)"/>
<rect x="836.5" y="307" width="6.00004" height="671" transform="rotate(90 836.5 307)" fill="url(#paint18_linear_89_175)"/>
<rect x="200.5" y="357" width="6.00001" height="479" fill="url(#paint19_linear_89_175)"/>
<rect x="271.5" y="357" width="6.00001" height="479" fill="url(#paint20_linear_89_175)"/>
<rect x="253.5" y="357" width="6.00001" height="479" fill="url(#paint21_linear_89_175)"/>
<rect x="324.5" y="357" width="6.00001" height="479" fill="url(#paint22_linear_89_175)"/>
<rect x="165.5" y="357" width="6.00001" height="479" fill="url(#paint23_linear_89_175)"/>
<rect x="218.5" y="357" width="6.00001" height="479" fill="url(#paint24_linear_89_175)"/>
<rect x="289.5" y="357" width="6.00001" height="479" fill="url(#paint25_linear_89_175)"/>
<rect x="183.5" y="357" width="6.00001" height="479" fill="url(#paint26_linear_89_175)"/>
<rect x="236.5" y="357" width="6.00001" height="479" fill="url(#paint27_linear_89_175)"/>
<rect x="306.5" y="357" width="6.00001" height="479" fill="url(#paint28_linear_89_175)"/>
<rect x="698.5" y="357" width="6.00001" height="289" fill="url(#paint29_linear_89_175)"/>
<rect x="769.5" y="357" width="6.00001" height="289" fill="url(#paint30_linear_89_175)"/>
<rect x="751.5" y="357" width="6.00001" height="289" fill="url(#paint31_linear_89_175)"/>
<rect x="822.5" y="357" width="6.00001" height="289" fill="url(#paint32_linear_89_175)"/>
<rect x="663.5" y="357" width="6.00001" height="289" fill="url(#paint33_linear_89_175)"/>
<rect x="716.5" y="357" width="6.00001" height="289" fill="url(#paint34_linear_89_175)"/>
<rect x="787.5" y="357" width="6.00001" height="289" fill="url(#paint35_linear_89_175)"/>
<rect x="681.5" y="357" width="6.00001" height="289" fill="url(#paint36_linear_89_175)"/>
<rect x="734.5" y="357" width="6.00001" height="289" fill="url(#paint37_linear_89_175)"/>
<rect x="804.5" y="357" width="6.00001" height="289" fill="url(#paint38_linear_89_175)"/>
<rect x="644.5" y="395" width="6.00001" height="289" transform="rotate(90 644.5 395)" fill="url(#paint39_linear_89_175)"/>
<rect x="644.5" y="466" width="6.00001" height="289" transform="rotate(90 644.5 466)" fill="url(#paint40_linear_89_175)"/>
<rect x="644.5" y="536" width="6.00001" height="289" transform="rotate(90 644.5 536)" fill="url(#paint41_linear_89_175)"/>
<rect x="644.5" y="448" width="6.00001" height="289" transform="rotate(90 644.5 448)" fill="url(#paint42_linear_89_175)"/>
<rect x="644.5" y="519" width="6.00001" height="289" transform="rotate(90 644.5 519)" fill="url(#paint43_linear_89_175)"/>
<rect x="644.5" y="589" width="6.00001" height="289" transform="rotate(90 644.5 589)" fill="url(#paint44_linear_89_175)"/>
<rect x="644.5" y="640" width="6.00001" height="289" transform="rotate(90 644.5 640)" fill="url(#paint45_linear_89_175)"/>
<rect x="644.5" y="360" width="6.00001" height="289" transform="rotate(90 644.5 360)" fill="url(#paint46_linear_89_175)"/>
<rect x="644.5" y="413" width="6.00001" height="289" transform="rotate(90 644.5 413)" fill="url(#paint47_linear_89_175)"/>
<rect x="644.5" y="484" width="6.00001" height="289" transform="rotate(90 644.5 484)" fill="url(#paint48_linear_89_175)"/>
<rect x="644.5" y="554" width="6.00001" height="289" transform="rotate(90 644.5 554)" fill="url(#paint49_linear_89_175)"/>
<rect x="644.5" y="605" width="6.00001" height="289" transform="rotate(90 644.5 605)" fill="url(#paint50_linear_89_175)"/>
<rect x="644.5" y="378" width="6.00001" height="289" transform="rotate(90 644.5 378)" fill="url(#paint51_linear_89_175)"/>
<rect x="644.5" y="431" width="6.00001" height="289" transform="rotate(90 644.5 431)" fill="url(#paint52_linear_89_175)"/>
<rect x="644.5" y="501" width="6.00001" height="289" transform="rotate(90 644.5 501)" fill="url(#paint53_linear_89_175)"/>
<rect x="644.5" y="571" width="6.00001" height="289" transform="rotate(90 644.5 571)" fill="url(#paint54_linear_89_175)"/>
<rect x="644.5" y="622" width="6.00001" height="289" transform="rotate(90 644.5 622)" fill="url(#paint55_linear_89_175)"/>
<rect x="349.5" y="801" width="6.00001" height="479" transform="rotate(-90 349.5 801)" fill="url(#paint56_linear_89_175)"/>
<rect x="349.5" y="730" width="6.00001" height="479" transform="rotate(-90 349.5 730)" fill="url(#paint57_linear_89_175)"/>
<rect x="349.5" y="748" width="6.00001" height="479" transform="rotate(-90 349.5 748)" fill="url(#paint58_linear_89_175)"/>
<rect x="349.5" y="677" width="6.00001" height="479" transform="rotate(-90 349.5 677)" fill="url(#paint59_linear_89_175)"/>
<rect x="349.5" y="836" width="6.00001" height="479" transform="rotate(-90 349.5 836)" fill="url(#paint60_linear_89_175)"/>
<rect x="349.5" y="783" width="6.00001" height="479" transform="rotate(-90 349.5 783)" fill="url(#paint61_linear_89_175)"/>
<rect x="349.5" y="712" width="6.00001" height="479" transform="rotate(-90 349.5 712)" fill="url(#paint62_linear_89_175)"/>
<rect x="349.5" y="818" width="6.00001" height="479" transform="rotate(-90 349.5 818)" fill="url(#paint63_linear_89_175)"/>
<rect x="349.5" y="765" width="6.00001" height="479" transform="rotate(-90 349.5 765)" fill="url(#paint64_linear_89_175)"/>
<rect x="349.5" y="695" width="6.00001" height="479" transform="rotate(-90 349.5 695)" fill="url(#paint65_linear_89_175)"/>
<rect x="165.549" y="100.7" width="5.89548" height="865.45" transform="rotate(-90 165.549 100.7)" fill="url(#paint66_linear_89_175)"/>
<rect x="-29" y="995.627" width="5.89548" height="865.45" transform="rotate(-90 -29 995.627)" fill="url(#paint67_linear_89_175)"/>
<rect x="165.549" y="29.9546" width="5.89548" height="865.45" transform="rotate(-90 165.549 29.9546)" fill="url(#paint68_linear_89_175)"/>
<rect x="-29" y="924.882" width="5.89548" height="865.45" transform="rotate(-90 -29 924.882)" fill="url(#paint69_linear_89_175)"/>
<rect x="165.549" y="47.6406" width="5.89548" height="865.45" transform="rotate(-90 165.549 47.6406)" fill="url(#paint70_linear_89_175)"/>
<rect x="-29" y="942.568" width="5.89548" height="865.45" transform="rotate(-90 -29 942.568)" fill="url(#paint71_linear_89_175)"/>
<rect x="-29" y="871.823" width="5.89548" height="865.45" transform="rotate(-90 -29 871.823)" fill="url(#paint72_linear_89_175)"/>
<rect x="165.549" y="136.072" width="5.89548" height="865.45" transform="rotate(-90 165.549 136.072)" fill="url(#paint73_linear_89_175)"/>
<rect x="165.549" y="83.0132" width="5.89548" height="865.45" transform="rotate(-90 165.549 83.0132)" fill="url(#paint74_linear_89_175)"/>
<rect x="-29" y="977.941" width="5.89548" height="865.45" transform="rotate(-90 -29 977.941)" fill="url(#paint75_linear_89_175)"/>
<rect x="165.549" y="12.2681" width="5.89548" height="865.45" transform="rotate(-90 165.549 12.2681)" fill="url(#paint76_linear_89_175)"/>
<rect x="-29" y="907.196" width="5.89548" height="865.45" transform="rotate(-90 -29 907.196)" fill="url(#paint77_linear_89_175)"/>
<rect x="165.549" y="118.386" width="5.89548" height="865.45" transform="rotate(-90 165.549 118.386)" fill="url(#paint78_linear_89_175)"/>
<rect x="165.549" y="65.3271" width="5.89548" height="865.45" transform="rotate(-90 165.549 65.3271)" fill="url(#paint79_linear_89_175)"/>
<rect x="-29" y="960.255" width="5.89548" height="865.45" transform="rotate(-90 -29 960.255)" fill="url(#paint80_linear_89_175)"/>
<rect x="-29" y="889.509" width="5.89548" height="865.45" transform="rotate(-90 -29 889.509)" fill="url(#paint81_linear_89_175)"/>
<rect x="100.7" y="836.451" width="5.89548" height="865.45" transform="rotate(180 100.7 836.451)" fill="url(#paint82_linear_89_175)"/>
<rect x="29.9546" y="836.451" width="5.89548" height="865.45" transform="rotate(180 29.9546 836.451)" fill="url(#paint83_linear_89_175)"/>
<rect x="47.6406" y="836.451" width="5.89548" height="865.45" transform="rotate(180 47.6406 836.451)" fill="url(#paint84_linear_89_175)"/>
<rect x="136.072" y="836.451" width="5.89548" height="865.45" transform="rotate(180 136.072 836.451)" fill="url(#paint85_linear_89_175)"/>
<rect x="83.0132" y="836.451" width="5.89548" height="865.45" transform="rotate(180 83.0132 836.451)" fill="url(#paint86_linear_89_175)"/>
<rect x="12.2681" y="836.451" width="5.89548" height="865.45" transform="rotate(180 12.2681 836.451)" fill="url(#paint87_linear_89_175)"/>
<rect x="118.386" y="836.451" width="5.89548" height="865.45" transform="rotate(180 118.386 836.451)" fill="url(#paint88_linear_89_175)"/>
<rect x="65.3271" y="836.451" width="5.89548" height="865.45" transform="rotate(180 65.3271 836.451)" fill="url(#paint89_linear_89_175)"/>
</g>
</g>
<defs>
<linearGradient id="paint0_linear_89_175" x1="904.248" y1="165.55" x2="904.248" y2="1031" gradientUnits="userSpaceOnUse">
<stop stop-color="#FF931E"/>
<stop offset="1" stop-color="#1E1E1E"/>
</linearGradient>
<linearGradient id="paint1_linear_89_175" x1="974.993" y1="165.55" x2="974.993" y2="1031" gradientUnits="userSpaceOnUse">
<stop stop-color="#FF931E"/>
<stop offset="1" stop-color="#1E1E1E"/>
</linearGradient>
<linearGradient id="paint2_linear_89_175" x1="957.307" y1="165.55" x2="957.307" y2="1031" gradientUnits="userSpaceOnUse">
<stop stop-color="#FF931E"/>
<stop offset="1" stop-color="#1E1E1E"/>
</linearGradient>
<linearGradient id="paint3_linear_89_175" x1="868.875" y1="165.55" x2="868.875" y2="1031" gradientUnits="userSpaceOnUse">
<stop stop-color="#FF931E"/>
<stop offset="1" stop-color="#1E1E1E"/>
</linearGradient>
<linearGradient id="paint4_linear_89_175" x1="921.935" y1="165.55" x2="921.935" y2="1031" gradientUnits="userSpaceOnUse">
<stop stop-color="#FF931E"/>
<stop offset="1" stop-color="#1E1E1E"/>
</linearGradient>
<linearGradient id="paint5_linear_89_175" x1="992.68" y1="165.55" x2="992.68" y2="1031" gradientUnits="userSpaceOnUse">
<stop stop-color="#FF931E"/>
<stop offset="1" stop-color="#1E1E1E"/>
</linearGradient>
<linearGradient id="paint6_linear_89_175" x1="886.562" y1="165.55" x2="886.562" y2="1031" gradientUnits="userSpaceOnUse">
<stop stop-color="#FF931E"/>
<stop offset="1" stop-color="#1E1E1E"/>
</linearGradient>
<linearGradient id="paint7_linear_89_175" x1="939.621" y1="165.55" x2="939.621" y2="1031" gradientUnits="userSpaceOnUse">
<stop stop-color="#FF931E"/>
<stop offset="1" stop-color="#1E1E1E"/>
</linearGradient>
<linearGradient id="paint8_linear_89_175" x1="1010.37" y1="165.55" x2="1010.37" y2="1031" gradientUnits="userSpaceOnUse">
<stop stop-color="#FF931E"/>
<stop offset="1" stop-color="#1E1E1E"/>
</linearGradient>
<linearGradient id="paint9_linear_89_175" x1="839.5" y1="201" x2="839.5" y2="872" gradientUnits="userSpaceOnUse">
<stop stop-color="#FF931E"/>
<stop offset="1" stop-color="#1E1E1E"/>
</linearGradient>
<linearGradient id="paint10_linear_89_175" x1="839.5" y1="272" x2="839.5" y2="943" gradientUnits="userSpaceOnUse">
<stop stop-color="#FF931E"/>
<stop offset="1" stop-color="#1E1E1E"/>
</linearGradient>
<linearGradient id="paint11_linear_89_175" x1="839.5" y1="254" x2="839.5" y2="925" gradientUnits="userSpaceOnUse">
<stop stop-color="#FF931E"/>
<stop offset="1" stop-color="#1E1E1E"/>
</linearGradient>
<linearGradient id="paint12_linear_89_175" x1="839.5" y1="325" x2="839.5" y2="996" gradientUnits="userSpaceOnUse">
<stop stop-color="#FF931E"/>
<stop offset="1" stop-color="#1E1E1E"/>
</linearGradient>
<linearGradient id="paint13_linear_89_175" x1="839.5" y1="166" x2="839.5" y2="837" gradientUnits="userSpaceOnUse">
<stop stop-color="#FF931E"/>
<stop offset="1" stop-color="#1E1E1E"/>
</linearGradient>
<linearGradient id="paint14_linear_89_175" x1="839.5" y1="219" x2="839.5" y2="890" gradientUnits="userSpaceOnUse">
<stop stop-color="#FF931E"/>
<stop offset="1" stop-color="#1E1E1E"/>
</linearGradient>
<linearGradient id="paint15_linear_89_175" x1="839.5" y1="290" x2="839.5" y2="961" gradientUnits="userSpaceOnUse">
<stop stop-color="#FF931E"/>
<stop offset="1" stop-color="#1E1E1E"/>
</linearGradient>
<linearGradient id="paint16_linear_89_175" x1="839.5" y1="184" x2="839.5" y2="855" gradientUnits="userSpaceOnUse">
<stop stop-color="#FF931E"/>
<stop offset="1" stop-color="#1E1E1E"/>
</linearGradient>
<linearGradient id="paint17_linear_89_175" x1="839.5" y1="237" x2="839.5" y2="908" gradientUnits="userSpaceOnUse">
<stop stop-color="#FF931E"/>
<stop offset="1" stop-color="#1E1E1E"/>
</linearGradient>
<linearGradient id="paint18_linear_89_175" x1="839.5" y1="307" x2="839.5" y2="978" gradientUnits="userSpaceOnUse">
<stop stop-color="#FF931E"/>
<stop offset="1" stop-color="#1E1E1E"/>
</linearGradient>
<linearGradient id="paint19_linear_89_175" x1="203.5" y1="357" x2="203.5" y2="836" gradientUnits="userSpaceOnUse">
<stop stop-color="#FF931E"/>
<stop offset="1" stop-color="#1E1E1E"/>
</linearGradient>
<linearGradient id="paint20_linear_89_175" x1="274.5" y1="357" x2="274.5" y2="836" gradientUnits="userSpaceOnUse">
<stop stop-color="#FF931E"/>
<stop offset="1" stop-color="#1E1E1E"/>
</linearGradient>
<linearGradient id="paint21_linear_89_175" x1="256.5" y1="357" x2="256.5" y2="836" gradientUnits="userSpaceOnUse">
<stop stop-color="#FF931E"/>
<stop offset="1" stop-color="#1E1E1E"/>
</linearGradient>
<linearGradient id="paint22_linear_89_175" x1="327.5" y1="357" x2="327.5" y2="836" gradientUnits="userSpaceOnUse">
<stop stop-color="#FF931E"/>
<stop offset="1" stop-color="#1E1E1E"/>
</linearGradient>
<linearGradient id="paint23_linear_89_175" x1="168.5" y1="357" x2="168.5" y2="836" gradientUnits="userSpaceOnUse">
<stop stop-color="#FF931E"/>
<stop offset="1" stop-color="#1E1E1E"/>
</linearGradient>
<linearGradient id="paint24_linear_89_175" x1="221.5" y1="357" x2="221.5" y2="836" gradientUnits="userSpaceOnUse">
<stop stop-color="#FF931E"/>
<stop offset="1" stop-color="#1E1E1E"/>
</linearGradient>
<linearGradient id="paint25_linear_89_175" x1="292.5" y1="357" x2="292.5" y2="836" gradientUnits="userSpaceOnUse">
<stop stop-color="#FF931E"/>
<stop offset="1" stop-color="#1E1E1E"/>
</linearGradient>
<linearGradient id="paint26_linear_89_175" x1="186.5" y1="357" x2="186.5" y2="836" gradientUnits="userSpaceOnUse">
<stop stop-color="#FF931E"/>
<stop offset="1" stop-color="#1E1E1E"/>
</linearGradient>
<linearGradient id="paint27_linear_89_175" x1="239.5" y1="357" x2="239.5" y2="836" gradientUnits="userSpaceOnUse">
<stop stop-color="#FF931E"/>
<stop offset="1" stop-color="#1E1E1E"/>
</linearGradient>
<linearGradient id="paint28_linear_89_175" x1="309.5" y1="357" x2="309.5" y2="836" gradientUnits="userSpaceOnUse">
<stop stop-color="#FF931E"/>
<stop offset="1" stop-color="#1E1E1E"/>
</linearGradient>
<linearGradient id="paint29_linear_89_175" x1="701.5" y1="357" x2="701.5" y2="646" gradientUnits="userSpaceOnUse">
<stop stop-color="#FF931E"/>
<stop offset="1" stop-color="#1E1E1E"/>
</linearGradient>
<linearGradient id="paint30_linear_89_175" x1="772.5" y1="357" x2="772.5" y2="646" gradientUnits="userSpaceOnUse">
<stop stop-color="#FF931E"/>
<stop offset="1" stop-color="#1E1E1E"/>
</linearGradient>
<linearGradient id="paint31_linear_89_175" x1="754.5" y1="357" x2="754.5" y2="646" gradientUnits="userSpaceOnUse">
<stop stop-color="#FF931E"/>
<stop offset="1" stop-color="#1E1E1E"/>
</linearGradient>
<linearGradient id="paint32_linear_89_175" x1="825.5" y1="357" x2="825.5" y2="646" gradientUnits="userSpaceOnUse">
<stop stop-color="#FF931E"/>
<stop offset="1" stop-color="#1E1E1E"/>
</linearGradient>
<linearGradient id="paint33_linear_89_175" x1="666.5" y1="357" x2="666.5" y2="646" gradientUnits="userSpaceOnUse">
<stop stop-color="#FF931E"/>
<stop offset="1" stop-color="#1E1E1E"/>
</linearGradient>
<linearGradient id="paint34_linear_89_175" x1="719.5" y1="357" x2="719.5" y2="646" gradientUnits="userSpaceOnUse">
<stop stop-color="#FF931E"/>
<stop offset="1" stop-color="#1E1E1E"/>
</linearGradient>
<linearGradient id="paint35_linear_89_175" x1="790.5" y1="357" x2="790.5" y2="646" gradientUnits="userSpaceOnUse">
<stop stop-color="#FF931E"/>
<stop offset="1" stop-color="#1E1E1E"/>
</linearGradient>
<linearGradient id="paint36_linear_89_175" x1="684.5" y1="357" x2="684.5" y2="646" gradientUnits="userSpaceOnUse">
<stop stop-color="#FF931E"/>
<stop offset="1" stop-color="#1E1E1E"/>
</linearGradient>
<linearGradient id="paint37_linear_89_175" x1="737.5" y1="357" x2="737.5" y2="646" gradientUnits="userSpaceOnUse">
<stop stop-color="#FF931E"/>
<stop offset="1" stop-color="#1E1E1E"/>
</linearGradient>
<linearGradient id="paint38_linear_89_175" x1="807.5" y1="357" x2="807.5" y2="646" gradientUnits="userSpaceOnUse">
<stop stop-color="#FF931E"/>
<stop offset="1" stop-color="#1E1E1E"/>
</linearGradient>
<linearGradient id="paint39_linear_89_175" x1="647.5" y1="395" x2="647.5" y2="684" gradientUnits="userSpaceOnUse">
<stop stop-color="#FF931E"/>
<stop offset="1" stop-color="#1E1E1E"/>
</linearGradient>
<linearGradient id="paint40_linear_89_175" x1="647.5" y1="466" x2="647.5" y2="755" gradientUnits="userSpaceOnUse">
<stop stop-color="#FF931E"/>
<stop offset="1" stop-color="#1E1E1E"/>
</linearGradient>
<linearGradient id="paint41_linear_89_175" x1="647.5" y1="536" x2="647.5" y2="825" gradientUnits="userSpaceOnUse">
<stop stop-color="#FF931E"/>
<stop offset="1" stop-color="#1E1E1E"/>
</linearGradient>
<linearGradient id="paint42_linear_89_175" x1="647.5" y1="448" x2="647.5" y2="737" gradientUnits="userSpaceOnUse">
<stop stop-color="#FF931E"/>
<stop offset="1" stop-color="#1E1E1E"/>
</linearGradient>
<linearGradient id="paint43_linear_89_175" x1="647.5" y1="519" x2="647.5" y2="808" gradientUnits="userSpaceOnUse">
<stop stop-color="#FF931E"/>
<stop offset="1" stop-color="#1E1E1E"/>
</linearGradient>
<linearGradient id="paint44_linear_89_175" x1="647.5" y1="589" x2="647.5" y2="878" gradientUnits="userSpaceOnUse">
<stop stop-color="#FF931E"/>
<stop offset="1" stop-color="#1E1E1E"/>
</linearGradient>
<linearGradient id="paint45_linear_89_175" x1="647.5" y1="640" x2="647.5" y2="929" gradientUnits="userSpaceOnUse">
<stop stop-color="#FF931E"/>
<stop offset="1" stop-color="#1E1E1E"/>
</linearGradient>
<linearGradient id="paint46_linear_89_175" x1="647.5" y1="360" x2="647.5" y2="649" gradientUnits="userSpaceOnUse">
<stop stop-color="#FF931E"/>
<stop offset="1" stop-color="#1E1E1E"/>
</linearGradient>
<linearGradient id="paint47_linear_89_175" x1="647.5" y1="413" x2="647.5" y2="702" gradientUnits="userSpaceOnUse">
<stop stop-color="#FF931E"/>
<stop offset="1" stop-color="#1E1E1E"/>
</linearGradient>
<linearGradient id="paint48_linear_89_175" x1="647.5" y1="484" x2="647.5" y2="773" gradientUnits="userSpaceOnUse">
<stop stop-color="#FF931E"/>
<stop offset="1" stop-color="#1E1E1E"/>
</linearGradient>
<linearGradient id="paint49_linear_89_175" x1="647.5" y1="554" x2="647.5" y2="843" gradientUnits="userSpaceOnUse">
<stop stop-color="#FF931E"/>
<stop offset="1" stop-color="#1E1E1E"/>
</linearGradient>
<linearGradient id="paint50_linear_89_175" x1="647.5" y1="605" x2="647.5" y2="894" gradientUnits="userSpaceOnUse">
<stop stop-color="#FF931E"/>
<stop offset="1" stop-color="#1E1E1E"/>
</linearGradient>
<linearGradient id="paint51_linear_89_175" x1="647.5" y1="378" x2="647.5" y2="667" gradientUnits="userSpaceOnUse">
<stop stop-color="#FF931E"/>
<stop offset="1" stop-color="#1E1E1E"/>
</linearGradient>
<linearGradient id="paint52_linear_89_175" x1="647.5" y1="431" x2="647.5" y2="720" gradientUnits="userSpaceOnUse">
<stop stop-color="#FF931E"/>
<stop offset="1" stop-color="#1E1E1E"/>
</linearGradient>
<linearGradient id="paint53_linear_89_175" x1="647.5" y1="501" x2="647.5" y2="790" gradientUnits="userSpaceOnUse">
<stop stop-color="#FF931E"/>
<stop offset="1" stop-color="#1E1E1E"/>
</linearGradient>
<linearGradient id="paint54_linear_89_175" x1="647.5" y1="571" x2="647.5" y2="860" gradientUnits="userSpaceOnUse">
<stop stop-color="#FF931E"/>
<stop offset="1" stop-color="#1E1E1E"/>
</linearGradient>
<linearGradient id="paint55_linear_89_175" x1="647.5" y1="622" x2="647.5" y2="911" gradientUnits="userSpaceOnUse">
<stop stop-color="#FF931E"/>
<stop offset="1" stop-color="#1E1E1E"/>
</linearGradient>
<linearGradient id="paint56_linear_89_175" x1="352.5" y1="801" x2="352.5" y2="1280" gradientUnits="userSpaceOnUse">
<stop stop-color="#FF931E"/>
<stop offset="1" stop-color="#1E1E1E"/>
</linearGradient>
<linearGradient id="paint57_linear_89_175" x1="352.5" y1="730" x2="352.5" y2="1209" gradientUnits="userSpaceOnUse">
<stop stop-color="#FF931E"/>
<stop offset="1" stop-color="#1E1E1E"/>
</linearGradient>
<linearGradient id="paint58_linear_89_175" x1="352.5" y1="748" x2="352.5" y2="1227" gradientUnits="userSpaceOnUse">
<stop stop-color="#FF931E"/>
<stop offset="1" stop-color="#1E1E1E"/>
</linearGradient>
<linearGradient id="paint59_linear_89_175" x1="352.5" y1="677" x2="352.5" y2="1156" gradientUnits="userSpaceOnUse">
<stop stop-color="#FF931E"/>
<stop offset="1" stop-color="#1E1E1E"/>
</linearGradient>
<linearGradient id="paint60_linear_89_175" x1="352.5" y1="836" x2="352.5" y2="1315" gradientUnits="userSpaceOnUse">
<stop stop-color="#FF931E"/>
<stop offset="1" stop-color="#1E1E1E"/>
</linearGradient>
<linearGradient id="paint61_linear_89_175" x1="352.5" y1="783" x2="352.5" y2="1262" gradientUnits="userSpaceOnUse">
<stop stop-color="#FF931E"/>
<stop offset="1" stop-color="#1E1E1E"/>
</linearGradient>
<linearGradient id="paint62_linear_89_175" x1="352.5" y1="712" x2="352.5" y2="1191" gradientUnits="userSpaceOnUse">
<stop stop-color="#FF931E"/>
<stop offset="1" stop-color="#1E1E1E"/>
</linearGradient>
<linearGradient id="paint63_linear_89_175" x1="352.5" y1="818" x2="352.5" y2="1297" gradientUnits="userSpaceOnUse">
<stop stop-color="#FF931E"/>
<stop offset="1" stop-color="#1E1E1E"/>
</linearGradient>
<linearGradient id="paint64_linear_89_175" x1="352.5" y1="765" x2="352.5" y2="1244" gradientUnits="userSpaceOnUse">
<stop stop-color="#FF931E"/>
<stop offset="1" stop-color="#1E1E1E"/>
</linearGradient>
<linearGradient id="paint65_linear_89_175" x1="352.5" y1="695" x2="352.5" y2="1174" gradientUnits="userSpaceOnUse">
<stop stop-color="#FF931E"/>
<stop offset="1" stop-color="#1E1E1E"/>
</linearGradient>
<linearGradient id="paint66_linear_89_175" x1="168.497" y1="100.7" x2="168.497" y2="966.15" gradientUnits="userSpaceOnUse">
<stop stop-color="#FF931E"/>
<stop offset="1" stop-color="#1E1E1E"/>
</linearGradient>
<linearGradient id="paint67_linear_89_175" x1="-26.0523" y1="995.627" x2="-26.0523" y2="1861.08" gradientUnits="userSpaceOnUse">
<stop stop-color="#FF931E"/>
<stop offset="1" stop-color="#1E1E1E"/>
</linearGradient>
<linearGradient id="paint68_linear_89_175" x1="168.497" y1="29.9546" x2="168.497" y2="895.405" gradientUnits="userSpaceOnUse">
<stop stop-color="#FF931E"/>
<stop offset="1" stop-color="#1E1E1E"/>
</linearGradient>
<linearGradient id="paint69_linear_89_175" x1="-26.0523" y1="924.882" x2="-26.0523" y2="1790.33" gradientUnits="userSpaceOnUse">
<stop stop-color="#FF931E"/>
<stop offset="1" stop-color="#1E1E1E"/>
</linearGradient>
<linearGradient id="paint70_linear_89_175" x1="168.497" y1="47.6406" x2="168.497" y2="913.091" gradientUnits="userSpaceOnUse">
<stop stop-color="#FF931E"/>
<stop offset="1" stop-color="#1E1E1E"/>
</linearGradient>
<linearGradient id="paint71_linear_89_175" x1="-26.0523" y1="942.568" x2="-26.0523" y2="1808.02" gradientUnits="userSpaceOnUse">
<stop stop-color="#FF931E"/>
<stop offset="1" stop-color="#1E1E1E"/>
</linearGradient>
<linearGradient id="paint72_linear_89_175" x1="-26.0523" y1="871.823" x2="-26.0523" y2="1737.27" gradientUnits="userSpaceOnUse">
<stop stop-color="#FF931E"/>
<stop offset="1" stop-color="#1E1E1E"/>
</linearGradient>
<linearGradient id="paint73_linear_89_175" x1="168.497" y1="136.072" x2="168.497" y2="1001.52" gradientUnits="userSpaceOnUse">
<stop stop-color="#FF931E"/>
<stop offset="1" stop-color="#1E1E1E"/>
</linearGradient>
<linearGradient id="paint74_linear_89_175" x1="168.497" y1="83.0132" x2="168.497" y2="948.464" gradientUnits="userSpaceOnUse">
<stop stop-color="#FF931E"/>
<stop offset="1" stop-color="#1E1E1E"/>
</linearGradient>
<linearGradient id="paint75_linear_89_175" x1="-26.0523" y1="977.941" x2="-26.0523" y2="1843.39" gradientUnits="userSpaceOnUse">
<stop stop-color="#FF931E"/>
<stop offset="1" stop-color="#1E1E1E"/>
</linearGradient>
<linearGradient id="paint76_linear_89_175" x1="168.497" y1="12.2681" x2="168.497" y2="877.719" gradientUnits="userSpaceOnUse">
<stop stop-color="#FF931E"/>
<stop offset="1" stop-color="#1E1E1E"/>
</linearGradient>
<linearGradient id="paint77_linear_89_175" x1="-26.0523" y1="907.196" x2="-26.0523" y2="1772.65" gradientUnits="userSpaceOnUse">
<stop stop-color="#FF931E"/>
<stop offset="1" stop-color="#1E1E1E"/>
</linearGradient>
<linearGradient id="paint78_linear_89_175" x1="168.497" y1="118.386" x2="168.497" y2="983.837" gradientUnits="userSpaceOnUse">
<stop stop-color="#FF931E"/>
<stop offset="1" stop-color="#1E1E1E"/>
</linearGradient>
<linearGradient id="paint79_linear_89_175" x1="168.497" y1="65.3271" x2="168.497" y2="930.778" gradientUnits="userSpaceOnUse">
<stop stop-color="#FF931E"/>
<stop offset="1" stop-color="#1E1E1E"/>
</linearGradient>
<linearGradient id="paint80_linear_89_175" x1="-26.0523" y1="960.255" x2="-26.0523" y2="1825.71" gradientUnits="userSpaceOnUse">
<stop stop-color="#FF931E"/>
<stop offset="1" stop-color="#1E1E1E"/>
</linearGradient>
<linearGradient id="paint81_linear_89_175" x1="-26.0523" y1="889.509" x2="-26.0523" y2="1754.96" gradientUnits="userSpaceOnUse">
<stop stop-color="#FF931E"/>
<stop offset="1" stop-color="#1E1E1E"/>
</linearGradient>
<linearGradient id="paint82_linear_89_175" x1="103.647" y1="836.451" x2="103.647" y2="1701.9" gradientUnits="userSpaceOnUse">
<stop stop-color="#FF931E"/>
<stop offset="1" stop-color="#1E1E1E"/>
</linearGradient>
<linearGradient id="paint83_linear_89_175" x1="32.9023" y1="836.451" x2="32.9023" y2="1701.9" gradientUnits="userSpaceOnUse">
<stop stop-color="#FF931E"/>
<stop offset="1" stop-color="#1E1E1E"/>
</linearGradient>
<linearGradient id="paint84_linear_89_175" x1="50.5884" y1="836.451" x2="50.5884" y2="1701.9" gradientUnits="userSpaceOnUse">
<stop stop-color="#FF931E"/>
<stop offset="1" stop-color="#1E1E1E"/>
</linearGradient>
<linearGradient id="paint85_linear_89_175" x1="139.02" y1="836.451" x2="139.02" y2="1701.9" gradientUnits="userSpaceOnUse">
<stop stop-color="#FF931E"/>
<stop offset="1" stop-color="#1E1E1E"/>
</linearGradient>
<linearGradient id="paint86_linear_89_175" x1="85.9609" y1="836.451" x2="85.9609" y2="1701.9" gradientUnits="userSpaceOnUse">
<stop stop-color="#FF931E"/>
<stop offset="1" stop-color="#1E1E1E"/>
</linearGradient>
<linearGradient id="paint87_linear_89_175" x1="15.2158" y1="836.451" x2="15.2158" y2="1701.9" gradientUnits="userSpaceOnUse">
<stop stop-color="#FF931E"/>
<stop offset="1" stop-color="#1E1E1E"/>
</linearGradient>
<linearGradient id="paint88_linear_89_175" x1="121.334" y1="836.451" x2="121.334" y2="1701.9" gradientUnits="userSpaceOnUse">
<stop stop-color="#FF931E"/>
<stop offset="1" stop-color="#1E1E1E"/>
</linearGradient>
<linearGradient id="paint89_linear_89_175" x1="68.2749" y1="836.451" x2="68.2749" y2="1701.9" gradientUnits="userSpaceOnUse">
<stop stop-color="#FF931E"/>
<stop offset="1" stop-color="#1E1E1E"/>
</linearGradient>
<clipPath id="clip0_89_175">
<rect width="1012" height="1001" rx="18" fill="white"/>
</clipPath>
</defs>
</svg>
